<?xml version="1.0" encoding="utf-8"?>
<!-- Generator: Adobe Illustrator 24.0.1, SVG Export Plug-In . SVG Version: 6.00 Build 0)  -->
<svg version="1.1" id="Layer_1" xmlns="http://www.w3.org/2000/svg" xmlns:xlink="http://www.w3.org/1999/xlink" x="0px" y="0px"
	 viewBox="0 0 762.7 159.7" style="enable-background:new 0 0 762.7 159.7;" xml:space="preserve">
<style type="text/css">
	.st0{fill:#382F2D;}
	.st1{fill:#0091B3;}
	.st2{fill:none;}
	.st3{fill:#002E6D;}
</style>
<g>
	<path class="st0" d="M206.3,114.4h-17.5V45.2h17.5V114.4z"/>
	<path class="st0" d="M276.3,114.4l-39.5-35.8v35.8h-17.4V45.2h4.9l39.3,36.3V45.2h17.5v69.2H276.3z"/>
	<path class="st0" d="M345.7,60.6H327v53.8h-17.5V60.6h-18.7V45.2h55V60.6z"/>
	<path class="st0" d="M372.7,60.6v11.3h31.7v14.5h-31.7V99h35.7v15.4h-53V45.2h53v15.4H372.7z"/>
	<path class="st0" d="M437.1,114.4h-17.3V45.2H450c18.1,0,26.9,10.2,26.9,24.6c0,9.6-4.6,16.6-13.1,20.1l18.3,24.6h-21l-15.3-21.9
		h-8.6V114.4z M437.1,78.8h13.5c4.5,0,9-3.3,9-9c0-6-4.4-9.2-9-9.2h-13.5V78.8z"/>
	<path class="st1" d="M550.7,45.2l-33.4,69.2h-3.8l-33.4-69.2h19.3l16,34.9l15.9-34.9H550.7z"/>
	<path class="st1" d="M575.4,60.6v11.3h31.7v14.5h-31.7V99h35.7v15.4h-53V45.2h53v15.4H575.4z"/>
	<path class="st1" d="M679.8,114.4l-39.5-35.8v35.8h-17.4V45.2h4.9l39.3,36.3V45.2h17.5v69.2H679.8z"/>
	<path class="st1" d="M754.3,114.4l-39.5-35.8v35.8h-17.4V45.2h4.9l39.3,36.3V45.2h17.5v69.2H754.3z"/>
</g>
<g>
	<path class="st2" d="M145.1,71.8c0.2-0.4,0.4-0.8,0.5-1.2c2.8-6.4,2.8-13.6-0.1-20c-1.4-3.2-3.5-6-6.1-8.3
		c2.5,9.3,4.3,18.7,5.5,28.2C145,71,145,71.4,145.1,71.8z"/>
	<path class="st2" d="M78.5,144.2c1.2,0.1,2.4,0.1,3.7,0.1c-5.7-1.7-11.4-3.6-17-5.7C68.9,141.8,73.6,143.7,78.5,144.2z"/>
	<path class="st2" d="M123.3,131.4c3.8-2.9,6.7-6.8,8.2-11.3c-3.4,4.5-7,8.8-10.8,13C121.6,132.6,122.5,132,123.3,131.4z"/>
	<path class="st2" d="M27.8,62.4c3,12.4,7.1,24.4,12.4,36c3,6.5,6.3,12.9,9.9,19.1c4.6,2.3,9.2,4.5,13.9,6.5
		c11.7,4.9,23.8,8.7,36.2,11.3c9.1-8.7,17.4-18.2,24.7-28.5c2.9-4.1,5.8-8.4,8.4-12.7c-0.1-7.3-0.7-14.5-1.6-21.7
		c-1.6-12.5-4.4-24.9-8.3-36.9c-11-3-22.3-5.1-33.7-6.2c-6.6-0.6-13.4-1-20.1-1h-0.2c-5.7,3.5-11.2,7.3-16.4,11.2
		C44.1,46.3,35.6,54,27.8,62.4z"/>
	<path class="st1" d="M46.8,16.1c-20.7,2.2-35.6,20.7-33.4,41.4c0,0.3,0.1,0.6,0.1,0.9c0,0.2,0,0.3,0.1,0.5c0,0.3,0.1,0.5,0.1,0.8
		c0.1,0.7,0.2,1.5,0.4,2.1c0.4,2,0.9,3.9,1.4,5.9c0.2,0.7,0.4,1.3,0.5,2c0.4,1.4,0.7,2.8,1.1,4.1c0.1,0.4,0.2,0.8,0.4,1.2
		c0.2,0.5,0.3,1.1,0.5,1.6c2.8,9.3,6.2,18.3,10.1,27.1c0.1,0.3,0.3,0.6,0.4,0.8l1.6,1c0.4,0.3,0.9,0.6,1.3,0.9l0.2,0.1l0,0
		c1.3,0.9,2.7,1.7,4,2.5c0.4,0.3,0.8,0.5,1.3,0.8c1,0.6,2,1.2,3,1.8l1.6,0.9c0.9,0.5,1.9,1.1,2.8,1.6l1.6,0.9l1,0.5v0l1.6,0.9
		c0.5,0.2,0.9,0.5,1.4,0.7l0.3,0.1c-3.6-6.2-6.9-12.5-9.9-19.1c-5.2-11.6-9.4-23.6-12.4-36c0-0.2-0.1-0.3-0.1-0.5s-0.1-0.4-0.1-0.6
		c-0.1-0.4-0.2-0.8-0.3-1.2l0,0L27,58.9c-0.1-0.5-0.2-1-0.3-1.5c0-0.2,0-0.3-0.1-0.5c-0.1-0.3-0.1-0.7-0.1-1c0-0.2,0-0.4,0-0.6
		c0-0.3-0.1-0.6-0.1-0.9c0-0.2,0-0.4,0-0.6s0-0.6,0-0.9c0-0.3,0-0.4,0-0.7c0-0.2,0-0.6,0.1-0.9s0.1-0.5,0.1-0.7s0.1-0.6,0.1-0.9
		c0.1-0.3,0.1-0.5,0.1-0.7c0-0.2,0.1-0.6,0.2-0.8s0.1-0.5,0.2-0.7s0.1-0.5,0.2-0.7l0,0c0-0.1,0-0.2,0.1-0.2c0.2-0.6,0.4-1.2,0.6-1.7
		c0.3-0.8,0.7-1.6,1-2.3c0.5-1.1,1.2-2.1,1.8-3.1c3-4.2,7.3-7.3,12.2-9c0.6-0.5,1.3-1,2-1.6l0,0c0.4-0.3,0.9-0.7,1.3-1l0.3-0.2
		c1.4-1.1,2.9-2.1,4.3-3.1c0.4-0.3,0.8-0.6,1.3-0.9c1-0.7,2.1-1.4,3.1-2.1c0.5-0.4,1.1-0.7,1.6-1.1c0.9-0.6,1.9-1.2,2.8-1.9l1.6-1
		c0.9-0.5,1.7-1.1,2.6-1.6c0.5-0.3,1-0.6,1.5-0.9l0.2-0.1C59.5,15,53.1,15.4,46.8,16.1z"/>
	<path class="st1" d="M133.4,95.8c0-0.5,0-1,0-1.5c0-0.1,0-0.2,0-0.3c-2.6,4.3-5.5,8.6-8.4,12.7c-7.3,10.2-15.6,19.8-24.7,28.5
		l-0.4,0.4l-0.5,0.4l0,0l-0.9,0.8c-0.4,0.3-0.7,0.7-1.1,1s-0.8,0.7-1.2,1l-0.4,0.3c-0.3,0.2-0.5,0.4-0.8,0.6
		c-0.2,0.1-0.3,0.2-0.5,0.3s-0.5,0.3-0.8,0.5c-0.3,0.2-0.4,0.2-0.6,0.3c-0.2,0.1-0.5,0.3-0.8,0.4c-0.3,0.1-0.4,0.2-0.6,0.3
		s-0.5,0.3-0.8,0.4c-0.3,0.1-0.4,0.2-0.6,0.3l-0.8,0.3c-0.2,0.1-0.4,0.2-0.6,0.2s-0.5,0.2-0.8,0.3c-0.3,0.1-0.5,0.1-0.7,0.2
		l-0.7,0.2l-0.2,0.1c-0.6,0.1-1.2,0.3-1.8,0.4c-0.9,0.1-1.7,0.2-2.6,0.3c-6.2,0.4-12.3-1.7-17-5.7c-0.8-0.3-1.7-0.6-2.5-1
		c-0.6-0.2-1.2-0.5-1.8-0.7l-1.9-0.8c-1.4-0.6-2.8-1.2-4.2-1.8l-1.3-0.6c-1-0.4-1.9-0.9-2.9-1.3l-1.5-0.7c-0.9-0.4-1.9-0.9-2.8-1.4
		l-1.4-0.7c-0.8-0.4-1.6-0.8-2.5-1.3c-0.5-0.3-1-0.5-1.5-0.8l-0.2-0.1c3.1,5,6.4,10,9.8,14.7c6.3,8.7,16,14.2,26.7,15.3
		c1.2,0.1,2.5,0.2,3.7,0.2c8.5,0,16.8-2.9,23.4-8.2l0.3-0.2l0.8-0.6c0.4-0.3,0.7-0.6,1-0.9c1.9-1.7,3.7-3.5,5.6-5.3l0.7-0.7
		c0.7-0.7,1.4-1.4,2.1-2.1l0.9-0.9c0.6-0.7,1.3-1.3,1.9-2c0.5-0.5,0.9-1,1.4-1.5c0.6-0.7,1.3-1.4,1.9-2.1c3.7-4.2,7.3-8.5,10.8-13
		c0.3-0.9,0.5-1.7,0.7-2.6c0.1-0.6,0.3-1.3,0.4-1.9c0-0.1,0-0.2,0-0.2l0,0c0.1-0.5,0.1-1,0.2-1.5c0.1-1.5,0.2-3,0.3-4.5
		c0-0.5,0.1-1,0.1-1.4c0.1-1,0.1-2.1,0.1-3.1c0-0.6,0-1.1,0-1.7c0-1,0-2,0.1-3c0-0.6,0-1.1,0-1.7c0-0.3,0-0.6,0-0.9l0,0
		C133.4,97.1,133.4,96.4,133.4,95.8z"/>
	<path class="st1" d="M157.6,45.2L157.6,45.2c-4.4-9.8-12.8-17.2-23.1-20.4l-0.8-0.3l-0.4-0.1l-0.8-0.2c-0.8-0.3-1.6-0.5-2.5-0.7
		l-1.5-0.4c-0.8-0.2-1.7-0.5-2.5-0.7l-1.4-0.4l-2.9-0.7l-1-0.2c-1.4-0.3-2.7-0.6-4.1-0.9c-0.6-0.1-1.2-0.2-1.8-0.4
		c-0.8-0.2-1.6-0.3-2.4-0.5c-6.4-1.3-12.9-2.3-19.4-3c-0.8,0.2-1.5,0.5-2.3,0.7c-0.6,0.2-1.1,0.4-1.7,0.7l-0.2,0.1l0,0l0,0
		c-1.5,0.7-3,1.4-4.4,2.2c-0.5,0.2-0.9,0.5-1.4,0.7c-1,0.5-2,1-3,1.6c-0.6,0.3-1.1,0.6-1.6,0.9c-0.9,0.5-1.9,1-2.8,1.6l-1.6,0.9
		l-1,0.6l0,0l-1.6,1c-0.5,0.3-0.9,0.5-1.4,0.8l-0.2,0.1h0.2c6.7,0,13.4,0.3,20.1,1c11.4,1.1,22.7,3.2,33.7,6.2l0.5,0.1l0.6,0.2
		l1.1,0.3l1.1,0.3l0.8,0.2c1,0.3,2,0.6,2.9,0.9c0.6,0.2,1.1,0.4,1.7,0.6c0.2,0.1,0.4,0.2,0.6,0.2c0.4,0.2,0.7,0.3,1.1,0.5
		c0.2,0.1,0.4,0.2,0.6,0.3c0.3,0.2,0.6,0.3,0.9,0.5s0.4,0.3,0.6,0.4l0.7,0.5l0.3,0.2c0.3,0.2,0.6,0.5,1,0.7c0.4,0.3,0.9,0.7,1.3,1.1
		c2.6,2.3,4.7,5.1,6.1,8.3c2.9,6.3,2.9,13.6,0.1,20c-0.2,0.4-0.4,0.8-0.5,1.2c0.1,0.6,0.2,1.3,0.2,1.9s0.1,1.1,0.2,1.6
		c0.2,1.7,0.3,3.4,0.5,5.2c0,0.5,0.1,1,0.1,1.5c0.1,1.2,0.2,2.4,0.2,3.6l0.1,1.8c0.1,1.1,0.1,2.2,0.1,3.3c0,0.6,0,1.3,0.1,1.9
		c0,1,0,2,0.1,3c0,0.6,0,1.1,0,1.7c0,0.1,0,0.2,0,0.3c4.1-7,7.8-14.2,11.1-21.6C162.1,66.2,162,55,157.6,45.2z"/>
	<path class="st3" d="M50.1,117.4l-0.3-0.1c-0.5-0.2-0.9-0.5-1.4-0.7l-1.6-0.9v0l-1-0.5l-1.6-0.9c-0.9-0.5-1.9-1-2.8-1.6l-1.6-0.9
		c-1-0.6-2-1.2-3-1.8c-0.4-0.3-0.8-0.5-1.3-0.8c-1.3-0.8-2.7-1.7-4-2.5l0,0l-0.2-0.1c-0.5-0.3-0.9-0.6-1.3-0.9l-1.6-1l-1-0.7
		C21.8,100,18,93.8,17.1,86.9c-0.4-3.4-0.1-6.9,0.9-10.2c-0.2-0.5-0.3-1.1-0.5-1.6c-0.1-0.4-0.2-0.8-0.4-1.2
		c-0.4-1.4-0.7-2.7-1.1-4.1c-0.2-0.7-0.4-1.3-0.5-2c-0.5-2-1-4-1.4-5.9c-0.1-0.6-0.3-1.3-0.4-2.1c0-0.3-0.1-0.5-0.1-0.8
		c0-0.2,0-0.3-0.1-0.5l-0.1,0.1c-0.2,0.2-0.4,0.4-0.5,0.6c-13.7,15.7-12,39.5,3.7,53.1c1.1,0.9,2.2,1.8,3.4,2.6
		c6.6,4.6,13.5,8.7,20.6,12.5l0.2,0.1c0.5,0.3,1,0.5,1.5,0.8c0.8,0.4,1.6,0.8,2.5,1.3l1.4,0.7c0.9,0.5,1.8,0.9,2.8,1.4l1.5,0.7
		c1,0.5,1.9,0.9,2.9,1.3l1.3,0.6c1.4,0.6,2.8,1.3,4.2,1.8l1.9,0.8c0.6,0.2,1.2,0.5,1.8,0.7c0.8,0.3,1.7,0.6,2.5,1
		c5.6,2.1,11.3,4,17,5.7c0.9,0,1.7-0.1,2.6-0.3c0.6-0.1,1.3-0.2,1.8-0.4l0.2-0.1l0.7-0.2c0.2-0.1,0.4-0.1,0.7-0.2
		c0.2-0.1,0.5-0.2,0.8-0.3c0.3-0.1,0.4-0.1,0.6-0.2l0.8-0.3c0.2-0.1,0.4-0.2,0.6-0.3s0.5-0.3,0.8-0.4s0.4-0.2,0.6-0.3
		c0.2-0.1,0.5-0.3,0.8-0.4c0.3-0.2,0.4-0.2,0.6-0.3c0.2-0.1,0.5-0.3,0.8-0.5c0.3-0.2,0.3-0.2,0.5-0.3c0.3-0.2,0.5-0.4,0.8-0.6
		l0.4-0.3c0.4-0.3,0.8-0.6,1.2-1c0.4-0.4,0.7-0.7,1.1-1l0.9-0.8l0,0l0.5-0.4l0.4-0.4c-12.4-2.6-24.5-6.4-36.2-11.3
		C59.3,121.9,54.6,119.8,50.1,117.4z"/>
	<path class="st3" d="M26.5,55.8c0,0.3,0.1,0.7,0.1,1c0,0.2,0,0.3,0.1,0.5c0.1,0.5,0.2,1,0.3,1.5l0.3,1.2l0,0
		c0.1,0.4,0.2,0.8,0.3,1.2c0,0.2,0.1,0.4,0.1,0.6c0.1,0.2,0.1,0.3,0.1,0.5c7.8-8.4,16.3-16.1,25.4-23c5.2-4,10.7-7.8,16.4-11.2
		l0.2-0.1c0.5-0.3,0.9-0.5,1.4-0.8l1.6-1l0,0l1-0.6l1.6-0.9c0.9-0.5,1.9-1.1,2.8-1.6c0.5-0.3,1.1-0.6,1.6-0.9c1-0.5,2-1.1,3-1.6
		c0.5-0.2,0.9-0.5,1.4-0.7c1.5-0.7,3-1.5,4.4-2.2l0,0l0,0l0.2-0.1c0.6-0.3,1.1-0.5,1.7-0.7c0.7-0.3,1.5-0.5,2.3-0.7
		c2.1-0.5,4.2-0.8,6.3-0.8c3.2,0,6.4,0.6,9.4,1.9c1.3,0.5,2.5,1.2,3.6,1.9c0.8,0.2,1.6,0.3,2.4,0.5c0.6,0.1,1.2,0.2,1.8,0.4
		c1.4,0.3,2.7,0.6,4.1,0.9l1,0.2l2.9,0.7l1.4,0.4c0.8,0.2,1.7,0.5,2.5,0.7l1.5,0.4c0.8,0.2,1.6,0.5,2.5,0.7l0.8,0.2l0.4,0.1
		c-8.4-19-30.6-27.6-49.6-19.3c-0.4,0.2-0.7,0.3-1.1,0.5c-5.8,2.8-11.6,5.9-17.2,9.2l-0.2,0.1c-0.5,0.3-1,0.6-1.5,0.9
		c-0.9,0.5-1.8,1.1-2.6,1.6l-1.6,1c-1,0.6-1.9,1.2-2.8,1.9c-0.5,0.3-1.1,0.7-1.6,1.1c-1,0.7-2.1,1.4-3.1,2.1
		c-0.4,0.3-0.8,0.6-1.3,0.9c-1.4,1-2.9,2.1-4.3,3.1l-0.3,0.2c-0.4,0.3-0.9,0.7-1.3,1l0,0c-0.7,0.5-1.3,1-2,1.6
		c-4.8,3.8-9.5,7.8-14.1,12c-0.4,0.8-0.7,1.5-1,2.3c-0.2,0.6-0.4,1.1-0.6,1.7c0,0.1,0,0.2-0.1,0.2l0,0c-0.1,0.2-0.1,0.5-0.2,0.7
		c-0.1,0.2-0.1,0.5-0.2,0.7c-0.1,0.2-0.1,0.6-0.2,0.8c-0.1,0.3-0.1,0.5-0.1,0.7c0,0.2-0.1,0.6-0.1,0.9c0,0.3-0.1,0.5-0.1,0.7
		c0,0.2,0,0.6-0.1,0.9s0,0.4,0,0.7c0,0.2,0,0.6,0,0.9s0,0.4,0,0.6c0,0.3,0,0.6,0.1,0.9C26.5,55.4,26.5,55.6,26.5,55.8z"/>
	<path class="st3" d="M146.7,95.6c0-1,0-2-0.1-3c0-0.6,0-1.3-0.1-1.9c0-1.1-0.1-2.2-0.1-3.3l-0.1-1.8c-0.1-1.2-0.2-2.4-0.2-3.6
		c0-0.5-0.1-1-0.1-1.5c-0.1-1.7-0.3-3.4-0.5-5.2c-0.1-0.5-0.1-1.1-0.2-1.6c-0.1-0.5-0.1-1.3-0.2-1.9c-0.1-0.4-0.1-0.8-0.1-1.2
		c-1.2-9.5-3.1-18.9-5.5-28.2c-0.4-0.4-0.9-0.7-1.3-1.1c-0.3-0.2-0.6-0.5-1-0.7l-0.3-0.2l-0.7-0.5c-0.2-0.1-0.4-0.3-0.6-0.4
		c-0.2-0.1-0.6-0.3-0.9-0.5c-0.2-0.1-0.4-0.2-0.6-0.3c-0.4-0.2-0.7-0.3-1.1-0.5c-0.2-0.1-0.4-0.2-0.6-0.2c-0.6-0.2-1.1-0.4-1.7-0.6
		c-0.9-0.3-1.9-0.6-2.9-0.9l-0.8-0.2l-1.1-0.3l-1.1-0.3l-0.6-0.2l-0.5-0.1c3.9,12,6.7,24.4,8.3,36.9c0.9,7.2,1.4,14.4,1.6,21.7
		c0,0.1,0,0.2,0,0.3c0,0.5,0,1,0,1.5c0,0.6,0,1.3,0,1.8l0,0c0,0.3,0,0.6,0,0.9c0,0.6,0,1.1,0,1.7c0,1,0,2-0.1,3c0,0.6,0,1.1,0,1.7
		c0,1-0.1,2.1-0.1,3.1c0,0.5,0,0.9-0.1,1.4c-0.1,1.5-0.2,3-0.3,4.5c0,0.5-0.1,1-0.2,1.5l0,0c0,0.1,0,0.2,0,0.2
		c-0.1,0.6-0.2,1.3-0.4,1.9c-0.2,0.9-0.4,1.8-0.7,2.6c-1.6,4.5-4.4,8.4-8.2,11.3c-0.8,0.6-1.7,1.2-2.6,1.7c-0.6,0.7-1.3,1.4-1.9,2.1
		c-0.5,0.5-0.9,1-1.4,1.5c-0.6,0.7-1.3,1.3-1.9,2l-0.9,0.9c-0.7,0.7-1.4,1.4-2.1,2.1l-0.7,0.7c-1.8,1.8-3.7,3.6-5.6,5.3
		c-0.3,0.3-0.6,0.6-1,0.9l-0.8,0.6l-0.3,0.2c1.4,0.2,2.8,0.2,4.2,0.3c19.7,0,36.1-15.1,37.6-34.7c0.4-5.7,0.7-11.5,0.6-17.3
		c0-0.1,0-0.2,0-0.3C146.7,96.8,146.7,96.2,146.7,95.6z"/>
</g>
</svg>
